<svg xmlns="http://www.w3.org/2000/svg" viewBox="0 0 96 96"><path fill="#546e7a" d="M5 22H7V26H5zM41 22H43V26H41z"/><path fill="#37474f" d="M7 23H41V25H7z"/><path fill="#ffc107" d="M40,19H8v20c0,2.206,1.791,4,4,4h24c2.209,0,4-1.794,4-4V19z"/><path fill="#37474f" d="M36,38c0,1.104-0.896,2-2,2H14c-1.104,0-2-0.896-2-2v-7h24V38z"/><path fill="#ffecb3" d="M36,31H12v-2c0,0,0-1,1-1s21,0,22,0s1,1,1,1V31z"/><path fill="#b0bec5" d="M15 33A1 1 0 1 0 15 35 1 1 0 1 0 15 33zM15 36A1 1 0 1 0 15 38 1 1 0 1 0 15 36zM33 33A1 1 0 1 0 33 35 1 1 0 1 0 33 33zM33 36A1 1 0 1 0 33 38 1 1 0 1 0 33 36zM18 33A1 1 0 1 0 18 35 1 1 0 1 0 18 33zM21 33A1 1 0 1 0 21 35 1 1 0 1 0 21 33zM24 33A1 1 0 1 0 24 35 1 1 0 1 0 24 33zM27 33A1 1 0 1 0 27 35 1 1 0 1 0 27 33zM30 33A1 1 0 1 0 30 35 1 1 0 1 0 30 33zM31 37c0 .553-.448 1-1 1H18c-.552 0-1-.447-1-1l0 0c0-.553.448-1 1-1h12C30.552 36 31 36.447 31 37L31 37z"/><path fill="#37474f" d="M10,19v1c0,1.104,0.896,2,2,2h24c1.104,0,2-0.896,2-2v-1H10z"/><path fill="#37474f" d="M31,22c0,2.206-3.134,4-7,4s-7-1.794-7-4c0-2.21,3.134-4,7-4S31,19.79,31,22z"/><path fill="#90caf9" d="M12 5H36V20H12z"/><path fill="#90caf9" d="M24 18.57A3 1.715 0 1 0 24 22A3 1.715 0 1 0 24 18.57Z"/></svg>